<mxfile host="app.diagrams.net" agent="Mozilla/5.0 (Windows NT 10.0; Win64; x64) AppleWebKit/537.36 (KHTML, like Gecko) Chrome/128.0.0.0 Safari/537.36 OPR/114.0.0.0" version="24.8.3">
  <diagram id="C5RBs43oDa-KdzZeNtuy" name="Page-1">
    <mxGraphModel dx="1008" dy="569" grid="1" gridSize="10" guides="1" tooltips="1" connect="1" arrows="1" fold="1" page="1" pageScale="1" pageWidth="827" pageHeight="1169" math="0" shadow="0">
      <root>
        <mxCell id="WIyWlLk6GJQsqaUBKTNV-0" />
        <mxCell id="WIyWlLk6GJQsqaUBKTNV-1" parent="WIyWlLk6GJQsqaUBKTNV-0" />
        <mxCell id="XK56NWqwI5-nnv18E4Ni-4" value="" style="edgeStyle=orthogonalEdgeStyle;rounded=0;orthogonalLoop=1;jettySize=auto;html=1;" edge="1" parent="WIyWlLk6GJQsqaUBKTNV-1" source="XK56NWqwI5-nnv18E4Ni-0" target="XK56NWqwI5-nnv18E4Ni-3">
          <mxGeometry relative="1" as="geometry" />
        </mxCell>
        <mxCell id="XK56NWqwI5-nnv18E4Ni-0" value="Начало" style="ellipse;whiteSpace=wrap;html=1;" vertex="1" parent="WIyWlLk6GJQsqaUBKTNV-1">
          <mxGeometry x="340" y="60" width="116" height="60" as="geometry" />
        </mxCell>
        <mxCell id="XK56NWqwI5-nnv18E4Ni-2" style="edgeStyle=orthogonalEdgeStyle;rounded=0;orthogonalLoop=1;jettySize=auto;html=1;exitX=0.5;exitY=1;exitDx=0;exitDy=0;" edge="1" parent="WIyWlLk6GJQsqaUBKTNV-1" source="XK56NWqwI5-nnv18E4Ni-0" target="XK56NWqwI5-nnv18E4Ni-0">
          <mxGeometry relative="1" as="geometry" />
        </mxCell>
        <mxCell id="XK56NWqwI5-nnv18E4Ni-6" value="" style="edgeStyle=orthogonalEdgeStyle;rounded=0;orthogonalLoop=1;jettySize=auto;html=1;" edge="1" parent="WIyWlLk6GJQsqaUBKTNV-1" target="XK56NWqwI5-nnv18E4Ni-5">
          <mxGeometry relative="1" as="geometry">
            <mxPoint x="398" y="200" as="sourcePoint" />
          </mxGeometry>
        </mxCell>
        <mxCell id="XK56NWqwI5-nnv18E4Ni-3" value="Подключение&lt;div&gt;библиотек&lt;/div&gt;" style="rounded=0;whiteSpace=wrap;html=1;" vertex="1" parent="WIyWlLk6GJQsqaUBKTNV-1">
          <mxGeometry x="338" y="150" width="120" height="60" as="geometry" />
        </mxCell>
        <mxCell id="XK56NWqwI5-nnv18E4Ni-66" value="" style="edgeStyle=orthogonalEdgeStyle;rounded=0;orthogonalLoop=1;jettySize=auto;html=1;" edge="1" parent="WIyWlLk6GJQsqaUBKTNV-1" source="XK56NWqwI5-nnv18E4Ni-5" target="XK56NWqwI5-nnv18E4Ni-65">
          <mxGeometry relative="1" as="geometry" />
        </mxCell>
        <mxCell id="XK56NWqwI5-nnv18E4Ni-5" value="Ввод переменных" style="shape=parallelogram;perimeter=parallelogramPerimeter;whiteSpace=wrap;html=1;fixedSize=1;" vertex="1" parent="WIyWlLk6GJQsqaUBKTNV-1">
          <mxGeometry x="322.5" y="250" width="151" height="60" as="geometry" />
        </mxCell>
        <mxCell id="XK56NWqwI5-nnv18E4Ni-70" value="" style="edgeStyle=orthogonalEdgeStyle;rounded=0;orthogonalLoop=1;jettySize=auto;html=1;" edge="1" parent="WIyWlLk6GJQsqaUBKTNV-1" source="XK56NWqwI5-nnv18E4Ni-7" target="XK56NWqwI5-nnv18E4Ni-69">
          <mxGeometry relative="1" as="geometry" />
        </mxCell>
        <mxCell id="XK56NWqwI5-nnv18E4Ni-80" style="edgeStyle=orthogonalEdgeStyle;rounded=0;orthogonalLoop=1;jettySize=auto;html=1;entryX=0.5;entryY=0;entryDx=0;entryDy=0;" edge="1" parent="WIyWlLk6GJQsqaUBKTNV-1" source="XK56NWqwI5-nnv18E4Ni-7" target="XK56NWqwI5-nnv18E4Ni-75">
          <mxGeometry relative="1" as="geometry">
            <mxPoint x="400" y="710" as="targetPoint" />
            <Array as="points">
              <mxPoint x="301" y="460" />
              <mxPoint x="301" y="710" />
              <mxPoint x="396" y="710" />
            </Array>
          </mxGeometry>
        </mxCell>
        <mxCell id="XK56NWqwI5-nnv18E4Ni-7" value="i=0; i&amp;lt;SIZE;i++" style="shape=hexagon;perimeter=hexagonPerimeter2;whiteSpace=wrap;html=1;fixedSize=1;" vertex="1" parent="WIyWlLk6GJQsqaUBKTNV-1">
          <mxGeometry x="338" y="420" width="120" height="80" as="geometry" />
        </mxCell>
        <mxCell id="XK56NWqwI5-nnv18E4Ni-62" value="Конец" style="ellipse;whiteSpace=wrap;html=1;" vertex="1" parent="WIyWlLk6GJQsqaUBKTNV-1">
          <mxGeometry x="342" y="1630" width="116" height="60" as="geometry" />
        </mxCell>
        <mxCell id="XK56NWqwI5-nnv18E4Ni-67" value="" style="edgeStyle=orthogonalEdgeStyle;rounded=0;orthogonalLoop=1;jettySize=auto;html=1;" edge="1" parent="WIyWlLk6GJQsqaUBKTNV-1" source="XK56NWqwI5-nnv18E4Ni-65" target="XK56NWqwI5-nnv18E4Ni-7">
          <mxGeometry relative="1" as="geometry" />
        </mxCell>
        <mxCell id="XK56NWqwI5-nnv18E4Ni-65" value="srand((unsigned)&lt;div&gt;time(NULL))&lt;br&gt;&lt;/div&gt;" style="rounded=0;whiteSpace=wrap;html=1;" vertex="1" parent="WIyWlLk6GJQsqaUBKTNV-1">
          <mxGeometry x="338" y="330" width="120" height="60" as="geometry" />
        </mxCell>
        <mxCell id="XK56NWqwI5-nnv18E4Ni-72" value="" style="edgeStyle=orthogonalEdgeStyle;rounded=0;orthogonalLoop=1;jettySize=auto;html=1;" edge="1" parent="WIyWlLk6GJQsqaUBKTNV-1" source="XK56NWqwI5-nnv18E4Ni-69" target="XK56NWqwI5-nnv18E4Ni-71">
          <mxGeometry relative="1" as="geometry" />
        </mxCell>
        <mxCell id="XK56NWqwI5-nnv18E4Ni-69" value="&lt;div&gt;*(ptr + i) = rand() % 5&lt;br&gt;&lt;/div&gt;" style="rounded=0;whiteSpace=wrap;html=1;" vertex="1" parent="WIyWlLk6GJQsqaUBKTNV-1">
          <mxGeometry x="338" y="530" width="120" height="60" as="geometry" />
        </mxCell>
        <mxCell id="XK56NWqwI5-nnv18E4Ni-79" style="edgeStyle=orthogonalEdgeStyle;rounded=0;orthogonalLoop=1;jettySize=auto;html=1;entryX=1;entryY=0.5;entryDx=0;entryDy=0;" edge="1" parent="WIyWlLk6GJQsqaUBKTNV-1" source="XK56NWqwI5-nnv18E4Ni-71" target="XK56NWqwI5-nnv18E4Ni-7">
          <mxGeometry relative="1" as="geometry">
            <mxPoint x="460" y="460" as="targetPoint" />
            <Array as="points">
              <mxPoint x="521" y="650" />
              <mxPoint x="521" y="460" />
            </Array>
          </mxGeometry>
        </mxCell>
        <mxCell id="XK56NWqwI5-nnv18E4Ni-71" value="вывод *(ptr + i)" style="shape=parallelogram;perimeter=parallelogramPerimeter;whiteSpace=wrap;html=1;fixedSize=1;" vertex="1" parent="WIyWlLk6GJQsqaUBKTNV-1">
          <mxGeometry x="322.5" y="620" width="151" height="60" as="geometry" />
        </mxCell>
        <mxCell id="XK56NWqwI5-nnv18E4Ni-74" value="" style="edgeStyle=orthogonalEdgeStyle;rounded=0;orthogonalLoop=1;jettySize=auto;html=1;" edge="1" parent="WIyWlLk6GJQsqaUBKTNV-1" source="XK56NWqwI5-nnv18E4Ni-75" target="XK56NWqwI5-nnv18E4Ni-77">
          <mxGeometry relative="1" as="geometry" />
        </mxCell>
        <mxCell id="XK56NWqwI5-nnv18E4Ni-87" style="edgeStyle=orthogonalEdgeStyle;rounded=0;orthogonalLoop=1;jettySize=auto;html=1;entryX=0.5;entryY=0;entryDx=0;entryDy=0;" edge="1" parent="WIyWlLk6GJQsqaUBKTNV-1" source="XK56NWqwI5-nnv18E4Ni-75" target="XK56NWqwI5-nnv18E4Ni-83">
          <mxGeometry relative="1" as="geometry">
            <mxPoint x="400" y="1040" as="targetPoint" />
            <Array as="points">
              <mxPoint x="301" y="780" />
              <mxPoint x="301" y="1040" />
              <mxPoint x="400" y="1040" />
            </Array>
          </mxGeometry>
        </mxCell>
        <mxCell id="XK56NWqwI5-nnv18E4Ni-75" value="j=0; j&amp;lt;SIZE;j++" style="shape=hexagon;perimeter=hexagonPerimeter2;whiteSpace=wrap;html=1;fixedSize=1;" vertex="1" parent="WIyWlLk6GJQsqaUBKTNV-1">
          <mxGeometry x="336" y="740" width="120" height="80" as="geometry" />
        </mxCell>
        <mxCell id="XK56NWqwI5-nnv18E4Ni-76" value="" style="edgeStyle=orthogonalEdgeStyle;rounded=0;orthogonalLoop=1;jettySize=auto;html=1;" edge="1" parent="WIyWlLk6GJQsqaUBKTNV-1" source="XK56NWqwI5-nnv18E4Ni-77" target="XK56NWqwI5-nnv18E4Ni-78">
          <mxGeometry relative="1" as="geometry" />
        </mxCell>
        <mxCell id="XK56NWqwI5-nnv18E4Ni-77" value="&lt;div&gt;*(ptr +j) = rand() % 5&lt;br&gt;&lt;/div&gt;" style="rounded=0;whiteSpace=wrap;html=1;" vertex="1" parent="WIyWlLk6GJQsqaUBKTNV-1">
          <mxGeometry x="336" y="850" width="120" height="60" as="geometry" />
        </mxCell>
        <mxCell id="XK56NWqwI5-nnv18E4Ni-81" style="edgeStyle=orthogonalEdgeStyle;rounded=0;orthogonalLoop=1;jettySize=auto;html=1;entryX=1;entryY=0.5;entryDx=0;entryDy=0;" edge="1" parent="WIyWlLk6GJQsqaUBKTNV-1" source="XK56NWqwI5-nnv18E4Ni-78" target="XK56NWqwI5-nnv18E4Ni-75">
          <mxGeometry relative="1" as="geometry">
            <mxPoint x="520" y="780" as="targetPoint" />
            <Array as="points">
              <mxPoint x="521" y="970" />
              <mxPoint x="521" y="780" />
            </Array>
          </mxGeometry>
        </mxCell>
        <mxCell id="XK56NWqwI5-nnv18E4Ni-78" value="вывод *(ptr + j)" style="shape=parallelogram;perimeter=parallelogramPerimeter;whiteSpace=wrap;html=1;fixedSize=1;" vertex="1" parent="WIyWlLk6GJQsqaUBKTNV-1">
          <mxGeometry x="320.5" y="940" width="151" height="60" as="geometry" />
        </mxCell>
        <mxCell id="XK56NWqwI5-nnv18E4Ni-89" value="" style="edgeStyle=orthogonalEdgeStyle;rounded=0;orthogonalLoop=1;jettySize=auto;html=1;" edge="1" parent="WIyWlLk6GJQsqaUBKTNV-1" source="XK56NWqwI5-nnv18E4Ni-83" target="XK56NWqwI5-nnv18E4Ni-88">
          <mxGeometry relative="1" as="geometry" />
        </mxCell>
        <mxCell id="XK56NWqwI5-nnv18E4Ni-99" style="edgeStyle=orthogonalEdgeStyle;rounded=0;orthogonalLoop=1;jettySize=auto;html=1;entryX=0.5;entryY=0;entryDx=0;entryDy=0;" edge="1" parent="WIyWlLk6GJQsqaUBKTNV-1" source="XK56NWqwI5-nnv18E4Ni-83" target="XK56NWqwI5-nnv18E4Ni-97">
          <mxGeometry relative="1" as="geometry">
            <mxPoint x="400" y="1500" as="targetPoint" />
            <Array as="points">
              <mxPoint x="561" y="1100" />
              <mxPoint x="561" y="1500" />
              <mxPoint x="400" y="1500" />
            </Array>
          </mxGeometry>
        </mxCell>
        <mxCell id="XK56NWqwI5-nnv18E4Ni-83" value="i=0; i&amp;lt;SIZE;i++" style="shape=hexagon;perimeter=hexagonPerimeter2;whiteSpace=wrap;html=1;fixedSize=1;" vertex="1" parent="WIyWlLk6GJQsqaUBKTNV-1">
          <mxGeometry x="340" y="1060" width="120" height="80" as="geometry" />
        </mxCell>
        <mxCell id="XK56NWqwI5-nnv18E4Ni-91" value="" style="edgeStyle=orthogonalEdgeStyle;rounded=0;orthogonalLoop=1;jettySize=auto;html=1;" edge="1" parent="WIyWlLk6GJQsqaUBKTNV-1" source="XK56NWqwI5-nnv18E4Ni-88" target="XK56NWqwI5-nnv18E4Ni-90">
          <mxGeometry relative="1" as="geometry" />
        </mxCell>
        <mxCell id="XK56NWqwI5-nnv18E4Ni-96" style="edgeStyle=orthogonalEdgeStyle;rounded=0;orthogonalLoop=1;jettySize=auto;html=1;entryX=0;entryY=0.5;entryDx=0;entryDy=0;" edge="1" parent="WIyWlLk6GJQsqaUBKTNV-1" source="XK56NWqwI5-nnv18E4Ni-88" target="XK56NWqwI5-nnv18E4Ni-83">
          <mxGeometry relative="1" as="geometry">
            <mxPoint x="300" y="1100" as="targetPoint" />
            <Array as="points">
              <mxPoint x="301" y="1209" />
              <mxPoint x="301" y="1100" />
            </Array>
          </mxGeometry>
        </mxCell>
        <mxCell id="XK56NWqwI5-nnv18E4Ni-88" value="j=0; j&amp;lt;SIZE;j++" style="shape=hexagon;perimeter=hexagonPerimeter2;whiteSpace=wrap;html=1;fixedSize=1;" vertex="1" parent="WIyWlLk6GJQsqaUBKTNV-1">
          <mxGeometry x="340" y="1169" width="120" height="80" as="geometry" />
        </mxCell>
        <mxCell id="XK56NWqwI5-nnv18E4Ni-94" value="" style="edgeStyle=orthogonalEdgeStyle;rounded=0;orthogonalLoop=1;jettySize=auto;html=1;" edge="1" parent="WIyWlLk6GJQsqaUBKTNV-1" source="XK56NWqwI5-nnv18E4Ni-90" target="XK56NWqwI5-nnv18E4Ni-93">
          <mxGeometry relative="1" as="geometry" />
        </mxCell>
        <mxCell id="XK56NWqwI5-nnv18E4Ni-90" value="*(ptr + i) == *(pte + j)" style="rhombus;whiteSpace=wrap;html=1;" vertex="1" parent="WIyWlLk6GJQsqaUBKTNV-1">
          <mxGeometry x="315" y="1280" width="170" height="80" as="geometry" />
        </mxCell>
        <mxCell id="XK56NWqwI5-nnv18E4Ni-95" style="edgeStyle=orthogonalEdgeStyle;rounded=0;orthogonalLoop=1;jettySize=auto;html=1;entryX=1;entryY=0.5;entryDx=0;entryDy=0;" edge="1" parent="WIyWlLk6GJQsqaUBKTNV-1" source="XK56NWqwI5-nnv18E4Ni-93" target="XK56NWqwI5-nnv18E4Ni-88">
          <mxGeometry relative="1" as="geometry">
            <mxPoint x="510" y="1200" as="targetPoint" />
            <Array as="points">
              <mxPoint x="511" y="1430" />
              <mxPoint x="511" y="1209" />
            </Array>
          </mxGeometry>
        </mxCell>
        <mxCell id="XK56NWqwI5-nnv18E4Ni-93" value="count++" style="rounded=0;whiteSpace=wrap;html=1;" vertex="1" parent="WIyWlLk6GJQsqaUBKTNV-1">
          <mxGeometry x="340" y="1400" width="120" height="60" as="geometry" />
        </mxCell>
        <mxCell id="XK56NWqwI5-nnv18E4Ni-100" value="" style="edgeStyle=orthogonalEdgeStyle;rounded=0;orthogonalLoop=1;jettySize=auto;html=1;" edge="1" parent="WIyWlLk6GJQsqaUBKTNV-1" source="XK56NWqwI5-nnv18E4Ni-97" target="XK56NWqwI5-nnv18E4Ni-62">
          <mxGeometry relative="1" as="geometry" />
        </mxCell>
        <mxCell id="XK56NWqwI5-nnv18E4Ni-97" value="вывод&amp;nbsp;count" style="shape=parallelogram;perimeter=parallelogramPerimeter;whiteSpace=wrap;html=1;fixedSize=1;" vertex="1" parent="WIyWlLk6GJQsqaUBKTNV-1">
          <mxGeometry x="324.5" y="1530" width="151" height="60" as="geometry" />
        </mxCell>
      </root>
    </mxGraphModel>
  </diagram>
</mxfile>
